<!-- <svg width="16" height="16" viewBox="0 0 16 16" fill="none" xmlns="http://www.w3.org/2000/svg">
<path d="M8.00251 14.9297L0 1.07422H6.14651L8.00251 4.27503L9.84583 1.07422H16L8.00251 14.9297Z" fill="black"/>
</svg> -->

<svg width="100" height="52" viewBox="0 0 100 52" fill="none" xmlns="http://www.w3.org/2000/svg">
<path d="M0.832855 25.842C0.621112 25.842 0.437602 25.7559 0.254091 25.598C0.0846971 25.44 0 25.2678 0 25.0668C0 24.9376 0.0141162 24.8371 0.0423485 24.7366L9.31668 1.03368C9.40137 0.760904 9.55665 0.51684 9.81074 0.315847C10.0648 0.100497 10.4036 0 10.8553 0H16.6994C17.1512 0 17.4899 0.100497 17.744 0.315847C17.9981 0.531197 18.1534 0.760904 18.2381 1.03368L27.4701 24.7366C27.5265 24.8371 27.5548 24.9519 27.5548 25.0668C27.5548 25.2678 27.4701 25.44 27.3007 25.598C27.1313 25.7559 26.9337 25.842 26.6937 25.842H21.8377C21.4425 25.842 21.146 25.7559 20.9484 25.5692C20.7508 25.3826 20.6237 25.2247 20.5814 25.0668L19.0427 21.3053H8.48382L6.98751 25.0668C6.93104 25.2103 6.81811 25.3826 6.6346 25.5692C6.45109 25.7559 6.14054 25.842 5.68882 25.842H0.832855ZM10.1072 15.979H17.4476L13.735 6.2308L10.1072 15.979Z" fill="black"/>
<path d="M37.033 25.842C36.7507 25.842 36.5107 25.7559 36.3272 25.5836C36.1437 25.4113 36.0449 25.196 36.0449 24.9232V5.8001H29.0291C28.7468 5.8001 28.5068 5.71396 28.3233 5.52732C28.1398 5.34068 28.041 5.12533 28.041 4.88127V0.918827C28.041 0.646051 28.1398 0.4307 28.3233 0.25842C28.5068 0.0861401 28.7468 0 29.0291 0H50.2599C50.5563 0 50.7822 0.0861401 50.9657 0.25842C51.1492 0.4307 51.248 0.646051 51.248 0.918827V4.86691C51.248 5.11098 51.1492 5.32633 50.9657 5.51297C50.7822 5.6996 50.5422 5.78574 50.2599 5.78574H43.2441V24.9088C43.2441 25.1816 43.1453 25.397 42.9618 25.5692C42.7783 25.7415 42.5383 25.8277 42.256 25.8277H37.0471L37.033 25.842Z" fill="black"/>
<path d="M78.2713 25.842C77.989 25.842 77.749 25.7559 77.5655 25.5836C77.382 25.4113 77.2832 25.196 77.2832 24.9232V0.918828C77.2832 0.646051 77.382 0.4307 77.5655 0.25842C77.749 0.0861401 77.989 0 78.2713 0H89.1597C91.3477 0 93.2393 0.315847 94.8626 0.947541C96.486 1.57923 97.7423 2.51242 98.6458 3.77581C99.5492 5.02484 100.001 6.61843 100.001 8.54223C100.001 10.466 99.5492 12.0022 98.6458 13.2369C97.7423 14.4715 96.4719 15.376 94.8626 15.9646C93.2393 16.5533 91.3477 16.8547 89.1597 16.8547H84.4589V24.9376C84.4589 25.2103 84.3601 25.4257 84.1625 25.598C83.9649 25.7702 83.7249 25.8564 83.4285 25.8564H78.2713V25.842ZM84.346 11.7438H88.962C90.0913 11.7438 90.9948 11.471 91.6724 10.9254C92.3358 10.3799 92.6746 9.56155 92.6746 8.45609C92.6746 7.5229 92.3782 6.73328 91.7994 6.10159C91.2206 5.4699 90.2749 5.13969 88.962 5.13969H84.346V11.7438Z" fill="black"/>
<path d="M67.609 0H60.7344C59.4074 0 58.6734 1.56488 59.5204 2.61292L67.3972 12.4185C68.2865 13.524 70.051 12.8923 70.051 11.4566V2.48371C70.051 1.11982 68.9641 0 67.609 0Z" fill="black"/>
<path d="M58.3672 14.4777V23.3788C58.3672 24.7427 59.4541 25.8625 60.8093 25.8625H67.6133C68.9402 25.8625 69.6742 24.2976 68.8273 23.2496L61.021 13.5301C60.1317 12.4247 58.3672 13.0564 58.3672 14.492V14.4777Z" fill="black"/>
<path d="M4.2709 51C4.1509 51 4.0489 50.958 3.9649 50.874C3.8809 50.79 3.8389 50.688 3.8389 50.568V38.85C3.8389 38.718 3.8809 38.61 3.9649 38.526C4.0489 38.442 4.1509 38.4 4.2709 38.4H9.1489C10.1089 38.4 10.9369 38.55 11.6329 38.85C12.3409 39.15 12.8929 39.6 13.2889 40.2C13.6849 40.8 13.8829 41.544 13.8829 42.432C13.8829 43.332 13.6849 44.076 13.2889 44.664C12.8929 45.252 12.3409 45.69 11.6329 45.978C10.9369 46.266 10.1089 46.41 9.1489 46.41H6.6109V50.568C6.6109 50.688 6.5689 50.79 6.4849 50.874C6.4009 50.958 6.2929 51 6.1609 51H4.2709ZM6.5569 44.304H9.0589C9.7069 44.304 10.2109 44.148 10.5709 43.836C10.9309 43.512 11.1109 43.044 11.1109 42.432C11.1109 41.856 10.9429 41.394 10.6069 41.046C10.2829 40.698 9.7669 40.524 9.0589 40.524H6.5569V44.304ZM14.4099 51C14.3019 51 14.2119 50.964 14.1399 50.892C14.0679 50.82 14.0319 50.73 14.0319 50.622C14.0319 50.574 14.0439 50.52 14.0679 50.46L18.3699 38.868C18.4059 38.748 18.4719 38.64 18.5679 38.544C18.6759 38.448 18.8259 38.4 19.0179 38.4H21.1419C21.3339 38.4 21.4779 38.448 21.5739 38.544C21.6819 38.64 21.7599 38.748 21.8079 38.868L26.1099 50.46C26.1219 50.52 26.1279 50.574 26.1279 50.622C26.1279 50.73 26.0919 50.82 26.0199 50.892C25.9479 50.964 25.8579 51 25.7499 51H24.0399C23.8599 51 23.7279 50.958 23.6439 50.874C23.5719 50.79 23.5239 50.712 23.4999 50.64L22.6899 48.552H17.4699L16.6779 50.64C16.6539 50.712 16.5999 50.79 16.5159 50.874C16.4319 50.958 16.3059 51 16.1379 51H14.4099ZM18.1179 46.356H22.0419L20.0799 40.974L18.1179 46.356ZM28.3662 51C28.2462 51 28.1442 50.958 28.0602 50.874C27.9762 50.79 27.9342 50.688 27.9342 50.568V38.85C27.9342 38.718 27.9762 38.61 28.0602 38.526C28.1442 38.442 28.2462 38.4 28.3662 38.4H33.0822C34.5582 38.4 35.7222 38.742 36.5742 39.426C37.4262 40.11 37.8522 41.094 37.8522 42.378C37.8522 43.266 37.6362 44.004 37.2042 44.592C36.7842 45.168 36.2142 45.594 35.4942 45.87L38.0862 50.424C38.1222 50.496 38.1402 50.562 38.1402 50.622C38.1402 50.73 38.0982 50.82 38.0142 50.892C37.9422 50.964 37.8582 51 37.7622 51H35.9442C35.7282 51 35.5662 50.946 35.4582 50.838C35.3502 50.73 35.2722 50.622 35.2242 50.514L32.9562 46.32H30.6162V50.568C30.6162 50.688 30.5742 50.79 30.4902 50.874C30.4062 50.958 30.2982 51 30.1662 51H28.3662ZM30.6162 44.16H33.0462C33.7302 44.16 34.2402 44.004 34.5762 43.692C34.9242 43.368 35.0982 42.924 35.0982 42.36C35.0982 41.784 34.9302 41.334 34.5942 41.01C34.2582 40.686 33.7422 40.524 33.0462 40.524H30.6162V44.16ZM43.3968 51C43.2768 51 43.1748 50.958 43.0908 50.874C43.0068 50.79 42.9648 50.688 42.9648 50.568V40.758H39.6708C39.5388 40.758 39.4308 40.716 39.3468 40.632C39.2628 40.548 39.2208 40.446 39.2208 40.326V38.85C39.2208 38.718 39.2628 38.61 39.3468 38.526C39.4308 38.442 39.5388 38.4 39.6708 38.4H48.9768C49.1088 38.4 49.2108 38.442 49.2828 38.526C49.3668 38.61 49.4088 38.718 49.4088 38.85V40.326C49.4088 40.446 49.3668 40.548 49.2828 40.632C49.2108 40.716 49.1088 40.758 48.9768 40.758H45.6828V50.568C45.6828 50.688 45.6408 50.79 45.5568 50.874C45.4728 50.958 45.3648 51 45.2328 51H43.3968ZM51.8287 51C51.7087 51 51.6067 50.958 51.5227 50.874C51.4387 50.79 51.3967 50.688 51.3967 50.568V38.85C51.3967 38.718 51.4387 38.61 51.5227 38.526C51.6067 38.442 51.7087 38.4 51.8287 38.4H53.3407C53.5207 38.4 53.6527 38.442 53.7367 38.526C53.8207 38.61 53.8747 38.67 53.8987 38.706L58.8847 46.482V38.85C58.8847 38.718 58.9207 38.61 58.9927 38.526C59.0767 38.442 59.1847 38.4 59.3167 38.4H60.9907C61.1227 38.4 61.2307 38.442 61.3147 38.526C61.3987 38.61 61.4407 38.718 61.4407 38.85V50.55C61.4407 50.682 61.3987 50.79 61.3147 50.874C61.2307 50.958 61.1227 51 60.9907 51H59.4787C59.2987 51 59.1667 50.958 59.0827 50.874C59.0107 50.79 58.9627 50.73 58.9387 50.694L53.9527 43.116V50.568C53.9527 50.688 53.9107 50.79 53.8267 50.874C53.7427 50.958 53.6347 51 53.5027 51H51.8287ZM64.808 51C64.688 51 64.586 50.958 64.502 50.874C64.418 50.79 64.376 50.688 64.376 50.568V38.85C64.376 38.718 64.418 38.61 64.502 38.526C64.586 38.442 64.688 38.4 64.808 38.4H72.854C72.986 38.4 73.094 38.442 73.178 38.526C73.262 38.61 73.304 38.718 73.304 38.85V40.164C73.304 40.284 73.262 40.386 73.178 40.47C73.094 40.554 72.986 40.596 72.854 40.596H66.968V43.602H72.458C72.59 43.602 72.698 43.644 72.782 43.728C72.866 43.812 72.908 43.92 72.908 44.052V45.258C72.908 45.39 72.866 45.498 72.782 45.582C72.698 45.666 72.59 45.708 72.458 45.708H66.968V48.804H72.998C73.13 48.804 73.238 48.846 73.322 48.93C73.406 49.014 73.448 49.122 73.448 49.254V50.568C73.448 50.688 73.406 50.79 73.322 50.874C73.238 50.958 73.13 51 72.998 51H64.808ZM76.2756 51C76.1556 51 76.0536 50.958 75.9696 50.874C75.8856 50.79 75.8436 50.688 75.8436 50.568V38.85C75.8436 38.718 75.8856 38.61 75.9696 38.526C76.0536 38.442 76.1556 38.4 76.2756 38.4H80.9916C82.4676 38.4 83.6316 38.742 84.4836 39.426C85.3356 40.11 85.7616 41.094 85.7616 42.378C85.7616 43.266 85.5456 44.004 85.1136 44.592C84.6936 45.168 84.1236 45.594 83.4036 45.87L85.9956 50.424C86.0316 50.496 86.0496 50.562 86.0496 50.622C86.0496 50.73 86.0076 50.82 85.9236 50.892C85.8516 50.964 85.7676 51 85.6716 51H83.8536C83.6376 51 83.4756 50.946 83.3676 50.838C83.2596 50.73 83.1816 50.622 83.1336 50.514L80.8656 46.32H78.5256V50.568C78.5256 50.688 78.4836 50.79 78.3996 50.874C78.3156 50.958 78.2076 51 78.0756 51H76.2756ZM78.5256 44.16H80.9556C81.6396 44.16 82.1496 44.004 82.4856 43.692C82.8336 43.368 83.0076 42.924 83.0076 42.36C83.0076 41.784 82.8396 41.334 82.5036 41.01C82.1676 40.686 81.6516 40.524 80.9556 40.524H78.5256V44.16ZM92.7068 51.18C91.5668 51.18 90.6128 51.012 89.8448 50.676C89.0888 50.34 88.5128 49.908 88.1168 49.38C87.7208 48.84 87.5108 48.27 87.4868 47.67C87.4868 47.562 87.5228 47.472 87.5948 47.4C87.6788 47.328 87.7748 47.292 87.8828 47.292H89.6468C89.8028 47.292 89.9168 47.328 89.9888 47.4C90.0728 47.46 90.1448 47.538 90.2048 47.634C90.2888 47.85 90.4268 48.066 90.6188 48.282C90.8228 48.486 91.0928 48.654 91.4288 48.786C91.7648 48.918 92.1908 48.984 92.7068 48.984C93.5228 48.984 94.1348 48.852 94.5428 48.588C94.9508 48.312 95.1548 47.94 95.1548 47.472C95.1548 47.148 95.0468 46.884 94.8308 46.68C94.6148 46.476 94.2728 46.296 93.8048 46.14C93.3368 45.972 92.7248 45.798 91.9688 45.618C91.0688 45.402 90.3068 45.144 89.6828 44.844C89.0708 44.544 88.6088 44.154 88.2968 43.674C87.9848 43.194 87.8288 42.594 87.8288 41.874C87.8288 41.166 88.0208 40.542 88.4048 40.002C88.7888 39.45 89.3348 39.018 90.0428 38.706C90.7628 38.382 91.6148 38.22 92.5988 38.22C93.3908 38.22 94.0868 38.328 94.6868 38.544C95.2988 38.748 95.8088 39.024 96.2168 39.372C96.6248 39.72 96.9368 40.092 97.1528 40.488C97.3688 40.884 97.4828 41.268 97.4948 41.64C97.4948 41.736 97.4588 41.826 97.3868 41.91C97.3148 41.982 97.2248 42.018 97.1168 42.018H95.2628C95.1548 42.018 95.0528 41.994 94.9568 41.946C94.8608 41.898 94.7828 41.808 94.7228 41.676C94.6508 41.328 94.4228 41.034 94.0388 40.794C93.6668 40.542 93.1868 40.416 92.5988 40.416C91.9748 40.416 91.4768 40.53 91.1048 40.758C90.7448 40.986 90.5648 41.34 90.5648 41.82C90.5648 42.132 90.6548 42.39 90.8348 42.594C91.0268 42.798 91.3328 42.984 91.7528 43.152C92.1848 43.308 92.7548 43.476 93.4628 43.656C94.4948 43.884 95.3348 44.148 95.9828 44.448C96.6428 44.748 97.1228 45.132 97.4228 45.6C97.7348 46.068 97.8908 46.656 97.8908 47.364C97.8908 48.168 97.6688 48.852 97.2248 49.416C96.7928 49.98 96.1868 50.418 95.4068 50.73C94.6388 51.03 93.7388 51.18 92.7068 51.18Z" fill="black"/>
</svg>
